<svg width="82" height="178" viewBox="0 0 82 178" fill="none" xmlns="http://www.w3.org/2000/svg">
<path d="M40.2411 164.664L38.3269 177.106V168.492V161.793V155.093L37.9023 145.522L37.3698 134.994V125.423L37.9023 115.852L37.3698 90.9674L37.9023 68.9541L37.3698 65.1257L34.4985 63.2115L31.6272 65.1257L26.8417 68.9541L23.0133 69.9112L23.9704 67.997L28.7559 63.2115L34.4985 57.4689L36.4127 54.5976L34.4985 50.7692L31.6272 49.8121H27.7988H23.9704L19.1849 52.6834L15.3565 55.5547L10.571 56.5118L14.3994 51.7263L20.142 46.9408L17.2707 45.0266H8.6568L3.8713 45.9837L1 44.0695V40.2411H5.7855H8.6568L16.6968 38.7371V35.4556L11.5281 30.6701L6.7426 27.7988L5.7855 24.9275L8.6568 25.8846L13.4423 28.7559L16.3136 30.6701L21.0991 33.5414L25.8846 31.6272L29.713 27.7988V24.9275V21.0991L25.8846 16.3136L21.0991 12.4852L20.142 10.571L23.9704 11.5281L27.7988 14.3994L32.5843 17.2707H36.4127L38.3269 14.3994L41.8548 10.571V7.6997V3.51581V1H44.0695L46.9408 2.9142V5.7855V10.571L47.8979 16.3136L49.8121 18.2278L52.6834 14.3994L56.5118 8.6568L58.426 7.6997L59.3831 8.6568L54.5976 15.3565L49.8121 23.0133L50.7692 26.8417L51.7263 29.713L57.4689 32.5843L64.1686 28.7559L68.9541 23.9704L71.8254 21.0991V23.9704L67.997 27.7988L64.1686 30.6701L60.3402 32.5843L63.2115 35.4556L67.0399 37.3698H71.8254H75.8182L78.334 38.7371H80.8498L79.4822 42.1553H77.0761H71.8254L67.0399 43.1124L63.2115 44.0695L64.1686 46.9408L68.9541 53.6405L65.1257 49.8121L59.3831 47.8979L53.6405 46.9408L49.8121 51.7263L48.855 56.5118L50.7692 58.426L54.5976 61.2973L60.3402 67.997L61.2973 69.9112L59.3831 68.9541L50.7692 62.2544L44.3706 58.426V73.9584L40.2411 78.5251L39.284 85.2248L40.2411 114.895L39.284 124.466V139.779L40.2411 153.179V164.664Z" fill="url(#paint0_linear_2429_321)" stroke="url(#paint1_linear_2429_321)"/>
<path d="M39.2845 32.5844L42.1558 31.6273H43.1129L45.0271 33.5415L45.9842 34.4986L46.9413 35.4557L47.8984 37.3699L48.8555 39.2841L47.8984 41.1983L46.9413 43.1125L45.0271 44.0696L43.1129 45.0267H40.2416H37.3703L35.4561 42.1554V37.3699V34.4986L39.2845 32.5844Z" fill="black" stroke="black"/>
<path d="M41.3496 145L40.3496 162.5L43.3496 145L46.3496 135L49.8496 129.5L54.3496 119.5L57.8496 111.5L62.8496 108.5L56.3496 110.5L48.8496 118.5L43.3496 135L41.3496 145Z" fill="#B31E1E" stroke="#B31E1E"/>
<path d="M37.3496 159.5L38.3496 177L35.3496 159.5L33.3496 149.5L28.8496 136L25.8496 131L20.8496 126L15.8496 123L22.3496 125L30.3496 131L35.3496 149.5L37.3496 159.5Z" fill="#B31E1E" stroke="#B31E1E"/>
<defs>
<linearGradient id="paint0_linear_2429_321" x1="40.9249" y1="1" x2="40.9249" y2="177.106" gradientUnits="userSpaceOnUse">
<stop stop-color="#FF2B2B"/>
<stop offset="1" stop-color="#B31E1E"/>
</linearGradient>
<linearGradient id="paint1_linear_2429_321" x1="40.9249" y1="1" x2="40.9249" y2="177.106" gradientUnits="userSpaceOnUse">
<stop stop-color="#FF2B2B"/>
<stop offset="1" stop-color="#B31E1E"/>
</linearGradient>
</defs>
</svg>
